<?xml version="1.0" encoding="UTF-8" standalone="no"?>
<!DOCTYPE svg PUBLIC "-//W3C//DTD SVG 1.1//EN"
 "http://www.w3.org/Graphics/SVG/1.1/DTD/svg11.dtd">
<!-- Generated by graphviz version 2.47.3 (20210619.1520)
 -->
<!-- Title: dependencies Pages: 1 -->
<svg width="356pt" height="174pt"
 viewBox="0.00 0.00 356.00 173.80" xmlns="http://www.w3.org/2000/svg" xmlns:xlink="http://www.w3.org/1999/xlink">
<g id="graph0" class="graph" transform="scale(1 1) rotate(0) translate(4 169.8)">
<title>dependencies</title>
<polygon fill="white" stroke="transparent" points="-4,4 -4,-169.8 352,-169.8 352,4 -4,4"/>
<text text-anchor="middle" x="174" y="-8.2" font-family="sans-serif" font-size="14.00">dependencies</text>
<g id="clust1" class="cluster">
<title>cluster_AboutUsPageModule</title>
<polygon fill="none" stroke="black" stroke-dasharray="1,5" points="8,-32.8 8,-157.8 340,-157.8 340,-32.8 8,-32.8"/>
</g>
<g id="clust4" class="cluster">
<title>cluster_AboutUsPageModule_imports</title>
<polygon fill="none" stroke="black" points="134,-40.8 134,-92.8 332,-92.8 332,-40.8 134,-40.8"/>
</g>
<g id="clust2" class="cluster">
<title>cluster_AboutUsPageModule_declarations</title>
<polygon fill="none" stroke="black" points="16,-40.8 16,-92.8 126,-92.8 126,-40.8 16,-40.8"/>
</g>
<!-- AboutUsPage -->
<g id="node1" class="node">
<title>AboutUsPage</title>
<polygon fill="#ffffb3" stroke="black" points="117.76,-84.8 24.24,-84.8 24.24,-48.8 117.76,-48.8 117.76,-84.8"/>
<text text-anchor="middle" x="71" y="-62.6" font-family="Times,serif" font-size="14.00">AboutUsPage</text>
</g>
<!-- AboutUsPageModule -->
<g id="node2" class="node">
<title>AboutUsPageModule</title>
<polygon fill="#8dd3c7" stroke="black" points="227.81,-149.8 224.81,-153.8 203.81,-153.8 200.81,-149.8 90.19,-149.8 90.19,-113.8 227.81,-113.8 227.81,-149.8"/>
<text text-anchor="middle" x="159" y="-127.6" font-family="Times,serif" font-size="14.00">AboutUsPageModule</text>
</g>
<!-- AboutUsPage&#45;&gt;AboutUsPageModule -->
<g id="edge1" class="edge">
<title>AboutUsPage&#45;&gt;AboutUsPageModule</title>
<path fill="none" stroke="black" d="M104.11,-84.91C104.11,-84.91 104.11,-103.79 104.11,-103.79"/>
<polygon fill="black" stroke="black" points="100.61,-103.79 104.11,-113.79 107.61,-103.79 100.61,-103.79"/>
</g>
<!-- AboutUsPageRoutingModule -->
<g id="node3" class="node">
<title>AboutUsPageRoutingModule</title>
<polygon fill="#8dd3c7" stroke="black" points="324.43,-84.8 321.43,-88.8 300.43,-88.8 297.43,-84.8 141.57,-84.8 141.57,-48.8 324.43,-48.8 324.43,-84.8"/>
<text text-anchor="middle" x="233" y="-62.6" font-family="Times,serif" font-size="14.00">AboutUsPageRoutingModule</text>
</g>
<!-- AboutUsPageRoutingModule&#45;&gt;AboutUsPageModule -->
<g id="edge2" class="edge">
<title>AboutUsPageRoutingModule&#45;&gt;AboutUsPageModule</title>
<path fill="none" stroke="black" d="M184.72,-84.91C184.72,-84.91 184.72,-103.79 184.72,-103.79"/>
<polygon fill="black" stroke="black" points="181.22,-103.79 184.72,-113.79 188.22,-103.79 181.22,-103.79"/>
</g>
</g>
</svg>
