<?xml version="1.0" encoding="UTF-8" standalone="no"?>
<!DOCTYPE svg PUBLIC "-//W3C//DTD SVG 1.1//EN"
 "http://www.w3.org/Graphics/SVG/1.1/DTD/svg11.dtd">
<!-- Generated by graphviz version 2.47.3 (20210619.1520)
 -->
<!-- Title: dependencies Pages: 1 -->
<svg width="168pt" height="174pt"
 viewBox="0.00 0.00 168.00 173.80" xmlns="http://www.w3.org/2000/svg" xmlns:xlink="http://www.w3.org/1999/xlink">
<g id="graph0" class="graph" transform="scale(1 1) rotate(0) translate(4 169.8)">
<title>dependencies</title>
<polygon fill="white" stroke="transparent" points="-4,4 -4,-169.8 164,-169.8 164,4 -4,4"/>
<text text-anchor="middle" x="80" y="-8.2" font-family="sans-serif" font-size="14.00">dependencies</text>
<g id="clust1" class="cluster">
<title>cluster_HistoryPageModule</title>
<polygon fill="none" stroke="black" stroke-dasharray="1,5" points="8,-32.8 8,-157.8 152,-157.8 152,-32.8 8,-32.8"/>
</g>
<g id="clust2" class="cluster">
<title>cluster_HistoryPageModule_declarations</title>
<polygon fill="none" stroke="black" points="29,-40.8 29,-92.8 131,-92.8 131,-40.8 29,-40.8"/>
</g>
<!-- HistoryPage -->
<g id="node1" class="node">
<title>HistoryPage</title>
<polygon fill="#ffffb3" stroke="black" points="122.71,-84.8 37.29,-84.8 37.29,-48.8 122.71,-48.8 122.71,-84.8"/>
<text text-anchor="middle" x="80" y="-62.6" font-family="Times,serif" font-size="14.00">HistoryPage</text>
</g>
<!-- HistoryPageModule -->
<g id="node2" class="node">
<title>HistoryPageModule</title>
<polygon fill="#8dd3c7" stroke="black" points="144.25,-149.8 141.25,-153.8 120.25,-153.8 117.25,-149.8 15.75,-149.8 15.75,-113.8 144.25,-113.8 144.25,-149.8"/>
<text text-anchor="middle" x="80" y="-127.6" font-family="Times,serif" font-size="14.00">HistoryPageModule</text>
</g>
<!-- HistoryPage&#45;&gt;HistoryPageModule -->
<g id="edge1" class="edge">
<title>HistoryPage&#45;&gt;HistoryPageModule</title>
<path fill="none" stroke="black" d="M80,-84.91C80,-84.91 80,-103.79 80,-103.79"/>
<polygon fill="black" stroke="black" points="76.5,-103.79 80,-113.79 83.5,-103.79 76.5,-103.79"/>
</g>
</g>
</svg>
