<?xml version="1.0" encoding="UTF-8" standalone="no"?>
<!DOCTYPE svg PUBLIC "-//W3C//DTD SVG 1.1//EN"
 "http://www.w3.org/Graphics/SVG/1.1/DTD/svg11.dtd">
<!-- Generated by graphviz version 2.47.3 (20210619.1520)
 -->
<!-- Title: dependencies Pages: 1 -->
<svg width="519pt" height="174pt"
 viewBox="0.00 0.00 519.00 173.80" xmlns="http://www.w3.org/2000/svg" xmlns:xlink="http://www.w3.org/1999/xlink">
<g id="graph0" class="graph" transform="scale(1 1) rotate(0) translate(4 169.8)">
<title>dependencies</title>
<polygon fill="white" stroke="transparent" points="-4,4 -4,-169.8 515,-169.8 515,4 -4,4"/>
<text text-anchor="middle" x="255.5" y="-8.2" font-family="sans-serif" font-size="14.00">dependencies</text>
<g id="clust1" class="cluster">
<title>cluster_LoginPageModule</title>
<polygon fill="none" stroke="black" stroke-dasharray="1,5" points="8,-32.8 8,-157.8 503,-157.8 503,-32.8 8,-32.8"/>
</g>
<g id="clust2" class="cluster">
<title>cluster_LoginPageModule_declarations</title>
<polygon fill="none" stroke="black" points="206,-40.8 206,-92.8 495,-92.8 495,-40.8 206,-40.8"/>
</g>
<g id="clust5" class="cluster">
<title>cluster_LoginPageModule_imports</title>
<polygon fill="none" stroke="black" points="16,-40.8 16,-92.8 198,-92.8 198,-40.8 16,-40.8"/>
</g>
<!-- LoginPage -->
<g id="node1" class="node">
<title>LoginPage</title>
<polygon fill="#ffffb3" stroke="black" points="487.16,-84.8 410.84,-84.8 410.84,-48.8 487.16,-48.8 487.16,-84.8"/>
<text text-anchor="middle" x="449" y="-62.6" font-family="Times,serif" font-size="14.00">LoginPage</text>
</g>
<!-- LoginPageModule -->
<g id="node3" class="node">
<title>LoginPageModule</title>
<polygon fill="#8dd3c7" stroke="black" points="363.2,-149.8 360.2,-153.8 339.2,-153.8 336.2,-149.8 242.8,-149.8 242.8,-113.8 363.2,-113.8 363.2,-149.8"/>
<text text-anchor="middle" x="303" y="-127.6" font-family="Times,serif" font-size="14.00">LoginPageModule</text>
</g>
<!-- LoginPage&#45;&gt;LoginPageModule -->
<g id="edge1" class="edge">
<title>LoginPage&#45;&gt;LoginPageModule</title>
<path fill="none" stroke="black" d="M449,-84.91C449,-104.14 449,-131.8 449,-131.8 449,-131.8 373.23,-131.8 373.23,-131.8"/>
<polygon fill="black" stroke="black" points="373.23,-128.3 363.23,-131.8 373.23,-135.3 373.23,-128.3"/>
</g>
<!-- TermsConditionsComponent -->
<g id="node2" class="node">
<title>TermsConditionsComponent</title>
<polygon fill="#ffffb3" stroke="black" points="392.05,-84.8 213.95,-84.8 213.95,-48.8 392.05,-48.8 392.05,-84.8"/>
<text text-anchor="middle" x="303" y="-62.6" font-family="Times,serif" font-size="14.00">TermsConditionsComponent</text>
</g>
<!-- TermsConditionsComponent&#45;&gt;LoginPageModule -->
<g id="edge2" class="edge">
<title>TermsConditionsComponent&#45;&gt;LoginPageModule</title>
<path fill="none" stroke="black" d="M303,-84.91C303,-84.91 303,-103.79 303,-103.79"/>
<polygon fill="black" stroke="black" points="299.5,-103.79 303,-113.79 306.5,-103.79 299.5,-103.79"/>
</g>
<!-- LoginPageRoutingModule -->
<g id="node4" class="node">
<title>LoginPageRoutingModule</title>
<polygon fill="#8dd3c7" stroke="black" points="189.82,-84.8 186.82,-88.8 165.82,-88.8 162.82,-84.8 24.18,-84.8 24.18,-48.8 189.82,-48.8 189.82,-84.8"/>
<text text-anchor="middle" x="107" y="-62.6" font-family="Times,serif" font-size="14.00">LoginPageRoutingModule</text>
</g>
<!-- LoginPageRoutingModule&#45;&gt;LoginPageModule -->
<g id="edge3" class="edge">
<title>LoginPageRoutingModule&#45;&gt;LoginPageModule</title>
<path fill="none" stroke="black" d="M107,-84.91C107,-104.14 107,-131.8 107,-131.8 107,-131.8 232.86,-131.8 232.86,-131.8"/>
<polygon fill="black" stroke="black" points="232.86,-135.3 242.86,-131.8 232.86,-128.3 232.86,-135.3"/>
</g>
</g>
</svg>
