<?xml version="1.0" encoding="UTF-8" standalone="no"?>
<!DOCTYPE svg PUBLIC "-//W3C//DTD SVG 1.1//EN"
 "http://www.w3.org/Graphics/SVG/1.1/DTD/svg11.dtd">
<!-- Generated by graphviz version 2.47.3 (20210619.1520)
 -->
<!-- Title: dependencies Pages: 1 -->
<svg width="1844pt" height="174pt"
 viewBox="0.00 0.00 1844.00 173.80" xmlns="http://www.w3.org/2000/svg" xmlns:xlink="http://www.w3.org/1999/xlink">
<g id="graph0" class="graph" transform="scale(1 1) rotate(0) translate(4 169.8)">
<title>dependencies</title>
<polygon fill="white" stroke="transparent" points="-4,4 -4,-169.8 1840,-169.8 1840,4 -4,4"/>
<text text-anchor="middle" x="918" y="-8.2" font-family="sans-serif" font-size="14.00">dependencies</text>
<g id="clust1" class="cluster">
<title>cluster_TrainingPageModule</title>
<polygon fill="none" stroke="black" stroke-dasharray="1,5" points="8,-32.8 8,-157.8 1828,-157.8 1828,-32.8 8,-32.8"/>
</g>
<g id="clust2" class="cluster">
<title>cluster_TrainingPageModule_declarations</title>
<polygon fill="none" stroke="black" points="16,-40.8 16,-92.8 1820,-92.8 1820,-40.8 16,-40.8"/>
</g>
<!-- ForcedChoiceComponent -->
<g id="node1" class="node">
<title>ForcedChoiceComponent</title>
<polygon fill="#ffffb3" stroke="black" points="1811.86,-84.8 1652.14,-84.8 1652.14,-48.8 1811.86,-48.8 1811.86,-84.8"/>
<text text-anchor="middle" x="1732" y="-62.6" font-family="Times,serif" font-size="14.00">ForcedChoiceComponent</text>
</g>
<!-- TrainingPageModule -->
<g id="node12" class="node">
<title>TrainingPageModule</title>
<polygon fill="#8dd3c7" stroke="black" points="929.47,-149.8 926.47,-153.8 905.47,-153.8 902.47,-149.8 794.53,-149.8 794.53,-113.8 929.47,-113.8 929.47,-149.8"/>
<text text-anchor="middle" x="862" y="-127.6" font-family="Times,serif" font-size="14.00">TrainingPageModule</text>
</g>
<!-- ForcedChoiceComponent&#45;&gt;TrainingPageModule -->
<g id="edge1" class="edge">
<title>ForcedChoiceComponent&#45;&gt;TrainingPageModule</title>
<path fill="none" stroke="black" d="M1732,-84.89C1732,-107.93 1732,-144.8 1732,-144.8 1732,-144.8 939.54,-144.8 939.54,-144.8"/>
<polygon fill="black" stroke="black" points="939.54,-141.3 929.54,-144.8 939.54,-148.3 939.54,-141.3"/>
</g>
<!-- HelpModalComponent -->
<g id="node2" class="node">
<title>HelpModalComponent</title>
<polygon fill="#ffffb3" stroke="black" points="1634.59,-84.8 1489.41,-84.8 1489.41,-48.8 1634.59,-48.8 1634.59,-84.8"/>
<text text-anchor="middle" x="1562" y="-62.6" font-family="Times,serif" font-size="14.00">HelpModalComponent</text>
</g>
<!-- HelpModalComponent&#45;&gt;TrainingPageModule -->
<g id="edge2" class="edge">
<title>HelpModalComponent&#45;&gt;TrainingPageModule</title>
<path fill="none" stroke="black" d="M1562,-85.08C1562,-106.12 1562,-137.8 1562,-137.8 1562,-137.8 939.75,-137.8 939.75,-137.8"/>
<polygon fill="black" stroke="black" points="939.76,-134.3 929.75,-137.8 939.75,-141.3 939.76,-134.3"/>
</g>
<!-- LearningTaskComponent -->
<g id="node3" class="node">
<title>LearningTaskComponent</title>
<polygon fill="#ffffb3" stroke="black" points="1471.58,-84.8 1312.42,-84.8 1312.42,-48.8 1471.58,-48.8 1471.58,-84.8"/>
<text text-anchor="middle" x="1392" y="-62.6" font-family="Times,serif" font-size="14.00">LearningTaskComponent</text>
</g>
<!-- LearningTaskComponent&#45;&gt;TrainingPageModule -->
<g id="edge3" class="edge">
<title>LearningTaskComponent&#45;&gt;TrainingPageModule</title>
<path fill="none" stroke="black" d="M1392,-84.91C1392,-104.14 1392,-131.8 1392,-131.8 1392,-131.8 939.66,-131.8 939.66,-131.8"/>
<polygon fill="black" stroke="black" points="939.66,-128.3 929.66,-131.8 939.66,-135.3 939.66,-128.3"/>
</g>
<!-- MemoryMatchComponent -->
<g id="node4" class="node">
<title>MemoryMatchComponent</title>
<polygon fill="#ffffb3" stroke="black" points="1294.81,-84.8 1129.19,-84.8 1129.19,-48.8 1294.81,-48.8 1294.81,-84.8"/>
<text text-anchor="middle" x="1212" y="-62.6" font-family="Times,serif" font-size="14.00">MemoryMatchComponent</text>
</g>
<!-- MemoryMatchComponent&#45;&gt;TrainingPageModule -->
<g id="edge4" class="edge">
<title>MemoryMatchComponent&#45;&gt;TrainingPageModule</title>
<path fill="none" stroke="black" d="M1212,-84.82C1212,-102.17 1212,-125.8 1212,-125.8 1212,-125.8 939.48,-125.8 939.48,-125.8"/>
<polygon fill="black" stroke="black" points="939.48,-122.3 929.48,-125.8 939.48,-129.3 939.48,-122.3"/>
</g>
<!-- NameFaceComponent -->
<g id="node5" class="node">
<title>NameFaceComponent</title>
<polygon fill="#ffffb3" stroke="black" points="1111.69,-84.8 970.31,-84.8 970.31,-48.8 1111.69,-48.8 1111.69,-84.8"/>
<text text-anchor="middle" x="1041" y="-62.6" font-family="Times,serif" font-size="14.00">NameFaceComponent</text>
</g>
<!-- NameFaceComponent&#45;&gt;TrainingPageModule -->
<g id="edge5" class="edge">
<title>NameFaceComponent&#45;&gt;TrainingPageModule</title>
<path fill="none" stroke="black" d="M1041,-85.04C1041,-100.37 1041,-119.8 1041,-119.8 1041,-119.8 939.67,-119.8 939.67,-119.8"/>
<polygon fill="black" stroke="black" points="939.67,-116.3 929.67,-119.8 939.67,-123.3 939.67,-116.3"/>
</g>
<!-- RaceSelectModalComponent -->
<g id="node6" class="node">
<title>RaceSelectModalComponent</title>
<polygon fill="#ffffb3" stroke="black" points="952.07,-84.8 771.93,-84.8 771.93,-48.8 952.07,-48.8 952.07,-84.8"/>
<text text-anchor="middle" x="862" y="-62.6" font-family="Times,serif" font-size="14.00">RaceSelectModalComponent</text>
</g>
<!-- RaceSelectModalComponent&#45;&gt;TrainingPageModule -->
<g id="edge6" class="edge">
<title>RaceSelectModalComponent&#45;&gt;TrainingPageModule</title>
<path fill="none" stroke="black" d="M862,-84.91C862,-84.91 862,-103.79 862,-103.79"/>
<polygon fill="black" stroke="black" points="858.5,-103.79 862,-113.79 865.5,-103.79 858.5,-103.79"/>
</g>
<!-- SameDifferentComponent -->
<g id="node7" class="node">
<title>SameDifferentComponent</title>
<polygon fill="#ffffb3" stroke="black" points="753.73,-84.8 590.27,-84.8 590.27,-48.8 753.73,-48.8 753.73,-84.8"/>
<text text-anchor="middle" x="672" y="-62.6" font-family="Times,serif" font-size="14.00">SameDifferentComponent</text>
</g>
<!-- SameDifferentComponent&#45;&gt;TrainingPageModule -->
<g id="edge7" class="edge">
<title>SameDifferentComponent&#45;&gt;TrainingPageModule</title>
<path fill="none" stroke="black" d="M672,-85.04C672,-100.37 672,-119.8 672,-119.8 672,-119.8 784.48,-119.8 784.48,-119.8"/>
<polygon fill="black" stroke="black" points="784.48,-123.3 794.48,-119.8 784.48,-116.3 784.48,-123.3"/>
</g>
<!-- ScorePageComponent -->
<g id="node8" class="node">
<title>ScorePageComponent</title>
<polygon fill="#ffffb3" stroke="black" points="572.42,-84.8 431.58,-84.8 431.58,-48.8 572.42,-48.8 572.42,-84.8"/>
<text text-anchor="middle" x="502" y="-62.6" font-family="Times,serif" font-size="14.00">ScorePageComponent</text>
</g>
<!-- ScorePageComponent&#45;&gt;TrainingPageModule -->
<g id="edge8" class="edge">
<title>ScorePageComponent&#45;&gt;TrainingPageModule</title>
<path fill="none" stroke="black" d="M502,-84.82C502,-102.17 502,-125.8 502,-125.8 502,-125.8 784.29,-125.8 784.29,-125.8"/>
<polygon fill="black" stroke="black" points="784.29,-129.3 794.29,-125.8 784.29,-122.3 784.29,-129.3"/>
</g>
<!-- ShuffleComponent -->
<g id="node9" class="node">
<title>ShuffleComponent</title>
<polygon fill="#ffffb3" stroke="black" points="414.04,-84.8 291.96,-84.8 291.96,-48.8 414.04,-48.8 414.04,-84.8"/>
<text text-anchor="middle" x="353" y="-62.6" font-family="Times,serif" font-size="14.00">ShuffleComponent</text>
</g>
<!-- ShuffleComponent&#45;&gt;TrainingPageModule -->
<g id="edge9" class="edge">
<title>ShuffleComponent&#45;&gt;TrainingPageModule</title>
<path fill="none" stroke="black" d="M353,-84.91C353,-104.14 353,-131.8 353,-131.8 353,-131.8 784.41,-131.8 784.41,-131.8"/>
<polygon fill="black" stroke="black" points="784.41,-135.3 794.41,-131.8 784.41,-128.3 784.41,-135.3"/>
</g>
<!-- TrainingPage -->
<g id="node10" class="node">
<title>TrainingPage</title>
<polygon fill="#ffffb3" stroke="black" points="273.92,-84.8 182.08,-84.8 182.08,-48.8 273.92,-48.8 273.92,-84.8"/>
<text text-anchor="middle" x="228" y="-62.6" font-family="Times,serif" font-size="14.00">TrainingPage</text>
</g>
<!-- TrainingPage&#45;&gt;TrainingPageModule -->
<g id="edge10" class="edge">
<title>TrainingPage&#45;&gt;TrainingPageModule</title>
<path fill="none" stroke="black" d="M228,-85.08C228,-106.12 228,-137.8 228,-137.8 228,-137.8 784.45,-137.8 784.45,-137.8"/>
<polygon fill="black" stroke="black" points="784.45,-141.3 794.45,-137.8 784.45,-134.3 784.45,-141.3"/>
</g>
<!-- WhosNewComponent -->
<g id="node11" class="node">
<title>WhosNewComponent</title>
<polygon fill="#ffffb3" stroke="black" points="164.42,-84.8 23.58,-84.8 23.58,-48.8 164.42,-48.8 164.42,-84.8"/>
<text text-anchor="middle" x="94" y="-62.6" font-family="Times,serif" font-size="14.00">WhosNewComponent</text>
</g>
<!-- WhosNewComponent&#45;&gt;TrainingPageModule -->
<g id="edge11" class="edge">
<title>WhosNewComponent&#45;&gt;TrainingPageModule</title>
<path fill="none" stroke="black" d="M94,-84.89C94,-107.93 94,-144.8 94,-144.8 94,-144.8 784.52,-144.8 784.52,-144.8"/>
<polygon fill="black" stroke="black" points="784.52,-148.3 794.52,-144.8 784.52,-141.3 784.52,-148.3"/>
</g>
</g>
</svg>
